<?xml version="1.0" encoding="utf-8"?>
<!-- Generator: Adobe Illustrator 22.1.0, SVG Export Plug-In . SVG Version: 6.00 Build 0)  -->
<svg version="1.1" id="Layer_1" xmlns="http://www.w3.org/2000/svg" xmlns:xlink="http://www.w3.org/1999/xlink" x="0px" y="0px"
	 viewBox="0 0 32 32" style="enable-background:new 0 0 32 32;" xml:space="preserve">
<style type="text/css">
	.st0{display:none;}
	.st1{display:inline;}
</style>
<g id="fav" class="st0">
	<path class="st1" d="M27.4,15.8L16,28L4.6,15.8c-2.5-2.7-2.5-7.1,0-9.8s6.6-2.7,9.1,0L16,8.5L18.3,6c2.5-2.7,6.6-2.7,9.1,0
		S29.9,13.1,27.4,15.8z"/>
</g>
<g id="star" class="st0">
	<path class="st1" d="M29.1,12.3l-8.5-1.2l-3.8-7.5C16.6,3.2,16.3,3,16,3c-0.3,0-0.6,0.2-0.8,0.7l-3.8,7.5l-8.5,1.2
		C2.3,12.5,2,12.7,2,13.2c0,0.2,0.1,0.5,0.4,0.8l6.2,5.8L7,27.9c0,0.2,0,0.3,0,0.3c0,0.2,0.1,0.4,0.2,0.6C7.3,28.9,7.5,29,7.7,29
		s0.4-0.1,0.7-0.2l7.6-3.9l7.6,3.9c0.2,0.1,0.5,0.2,0.7,0.2s0.4-0.1,0.5-0.2c0.1-0.2,0.2-0.4,0.2-0.6c0-0.1,0-0.3,0-0.3l-1.5-8.2
		l6.1-5.8c0.3-0.3,0.4-0.5,0.4-0.8C30.1,12.7,29.8,12.4,29.1,12.3L29.1,12.3z"/>
</g>
<g id="star-review" class="st0">
	<path class="st1" d="M27.7,31H4.3C2.5,31,1,29.5,1,27.7V4.3C1,2.5,2.5,1,4.3,1h23.3C29.5,1,31,2.5,31,4.3v23.3
		C31,29.5,29.5,31,27.7,31z M25.7,13.4l-6.5-1l-2.9-6.2C16.3,6.1,16.1,6,16,6s-0.3,0.1-0.3,0.2l-2.9,6.2l-6.5,1
		c-0.1,0-0.2,0.1-0.3,0.3c0,0.1,0,0.3,0.1,0.4l4.7,4.8l-1.1,6.8c0,0.1,0,0.3,0.1,0.4s0.3,0.1,0.4,0l5.8-3.2l5.8,3.2
		c0.1,0,0.1,0,0.2,0s0.1,0,0.2-0.1s0.2-0.2,0.1-0.4l-1.1-6.8l4.7-4.8c0.1-0.1,0.1-0.3,0.1-0.4C25.9,13.5,25.8,13.4,25.7,13.4z"/>
</g>
<g id="pin" class="st0">
	<path class="st1" d="M16,3c-5.3,0-9.6,4.2-9.6,9.4C6.4,19.5,16,30,16,30s9.6-10.5,9.6-17.5C25.6,7.2,21.3,3,16,3z M16,15.8
		c-1.9,0-3.4-1.5-3.4-3.4S14.1,9,16,9s3.4,1.5,3.4,3.4S17.9,15.8,16,15.8z"/>
</g>
<g id="calendar" class="st0">
	<path class="st1" d="M25,5h-1V4.5C24,3.7,23.3,3,22.5,3S21,3.7,21,4.5V5H11V4.5C11,3.7,10.3,3,9.5,3S8,3.7,8,4.5V5H7
		C5.6,5,4.5,6.1,4.5,7.5v19C4.5,27.9,5.6,29,7,29h18c1.4,0,2.5-1.1,2.5-2.5v-19C27.5,6.1,26.4,5,25,5z M11.8,27H6.3v-5h5.5V27z
		 M11.8,20.5H6.3v-5h5.5V20.5z M11.8,14H6.3V9h5.5V14z M18.8,27h-5.5v-5h5.5V27z M18.8,20.5h-5.5v-5h5.5V20.5z M18.8,14h-5.5V9h5.5
		V14z M25.8,27h-5.5v-5h5.5V27z M25.8,20.5h-5.5v-5h5.5V20.5z M25.8,14h-5.5V9h5.5V14z"/>
</g>
<g id="clock" class="st0">
	<path class="st1" d="M16,30C8.8,30,3,24.2,3,17S8.8,4,16,4s13,5.8,13,13S23.2,30,16,30z M16,6.8C10.4,6.8,5.8,11.4,5.8,17
		S10.4,27.2,16,27.2S26.2,22.6,26.2,17S21.6,6.8,16,6.8z M22.8,18.7h-6.9c-0.6,0-1.1-0.5-1.1-1.1v-8c0-0.6,0.5-1.1,1.1-1.1
		S17,9,17,9.6v7h5.8c0.6,0,1.1,0.5,1.1,1.1C23.8,18.3,23.4,18.7,22.8,18.7z"/>
</g>
<g id="ico-adult" class="st0">
	<path class="st1" d="M16,16c3,0,5.5-2.5,5.5-5.5S19,5,16,5s-5.5,2.5-5.5,5.5S13,16,16,16z M16,18.8c-3.7,0-11,1.8-11,5.5V27h22
		v-2.8C27,20.6,19.7,18.8,16,18.8z"/>
</g>
<g id="ico-child" class="st0">
	<g class="st1">
		<path d="M12.5,18.9c-3.2,0-9.5,1.6-9.5,4.8V26h11v-1.8c0-2.2,2.5-3.4,4.8-4C16.7,19.3,14.2,18.9,12.5,18.9z"/>
		<path d="M22,20.8c-0.6,0-1.5,0.1-2.3,0.3l0,0c-0.4,0.1-0.8,0.2-1.2,0.3h-0.1c-0.1,0-0.2,0.1-0.3,0.1c-0.1,0-0.1,0.1-0.2,0.1
			s-0.2,0.1-0.3,0.1c-0.1,0-0.2,0.1-0.3,0.1c-0.1,0-0.2,0.1-0.2,0.1C17,22,16.9,22,16.7,22.1c-0.1,0-0.1,0.1-0.2,0.1
			c-0.1,0.1-0.2,0.1-0.3,0.2l-0.1,0.1c-0.1,0.1-0.2,0.1-0.3,0.2l-0.1,0.1c-0.1,0.1-0.2,0.2-0.3,0.3c0,0,0,0-0.1,0.1
			s-0.1,0.2-0.2,0.3c0,0,0,0.1-0.1,0.1c0,0.1-0.1,0.2-0.1,0.3V24c0,0.1,0,0.3,0,0.4V26h7h7v-1.8C29,21.9,24.3,20.8,22,20.8z"/>
		<circle cx="22" cy="15.5" r="3.5"/>
		<circle cx="12.5" cy="11.8" r="4.8"/>
	</g>
</g>
<g id="struttura" class="st0">
	<path class="st1" d="M16.9,9.5v1.8h9.2v14.8h-9.2V4H4v24h11.1l0,0H28V9.5H16.9z M7.7,26.1H5.8v-3.7h1.8L7.7,26.1L7.7,26.1z
		 M7.7,20.6H5.8v-3.7h1.8L7.7,20.6L7.7,20.6z M7.7,15.1H5.8v-3.7h1.8L7.7,15.1L7.7,15.1z M7.7,9.5H5.8V5.8h1.8L7.7,9.5L7.7,9.5z
		 M11.4,26.1H9.5v-3.7h1.8L11.4,26.1L11.4,26.1z M11.4,20.6H9.5v-3.7h1.8L11.4,20.6L11.4,20.6z M11.4,15.1H9.5v-3.7h1.8L11.4,15.1
		L11.4,15.1z M11.4,9.5H9.5V5.8h1.8L11.4,9.5L11.4,9.5z M15.1,26.1h-1.8v-3.7h1.8V26.1z M15.1,20.6h-1.8v-3.7h1.8V20.6z M15.1,15.1
		h-1.8v-3.7h1.8V15.1z M15.1,9.5h-1.8V5.8h1.8V9.5z M20.6,15.1h-1.8v1.8h1.8V15.1z M24.3,15.1h-1.8v1.8h1.8V15.1z M18.8,22.5h1.8
		v-1.8h-1.8V22.5z M22.5,22.5h1.8v-1.8h-1.8V22.5z"/>
</g>
<g id="circle-close" class="st0">
	<path class="st1" d="M16,1C7.7,1,1,7.7,1,16s6.7,15,15,15s15-6.7,15-15S24.3,1,16,1z M22.7,20.7l-2,2L16,18l-4.7,4.7l-2-2L14,16
		l-4.7-4.7l2-2L16,14l4.7-4.7l2,2L18,16L22.7,20.7z"/>
</g>
<g id="reset" class="st0">
	<path class="st1" d="M29.5,25.5l-4,4L16,20l-9.5,9.5l-4-4L12,16L2.5,6.5l4-4L16,12l9.5-9.5l4,4L20,16L29.5,25.5z"/>
</g>
<g id="prev" class="st0">
	<path class="st1" d="M7.1,15.3l14.8-14C22.1,1.1,22.3,1,22.6,1c0.3,0,0.5,0.1,0.7,0.3l1.6,1.5c0.2,0.2,0.3,0.4,0.3,0.7
		S25.1,4,24.9,4.2L12.4,16l12.5,11.8c0.2,0.2,0.3,0.4,0.3,0.7c0,0.3-0.1,0.5-0.3,0.7l-1.6,1.5c-0.2,0.2-0.5,0.3-0.7,0.3
		c-0.3,0-0.5-0.1-0.7-0.3l-14.8-14c-0.2-0.2-0.3-0.4-0.3-0.7C6.8,15.7,6.9,15.5,7.1,15.3L7.1,15.3z"/>
</g>
<g id="next" class="st0">
	<path class="st1" d="M24.9,16.7l-14.8,14C9.9,30.9,9.7,31,9.4,31s-0.5-0.1-0.7-0.3l-1.6-1.5c-0.2-0.2-0.3-0.4-0.3-0.7
		c0-0.3,0.1-0.5,0.3-0.7L19.6,16L7.1,4.2C6.9,4,6.8,3.8,6.8,3.5S6.9,3,7.1,2.8l1.6-1.5C8.9,1.1,9.1,1,9.4,1c0.3,0,0.5,0.1,0.7,0.3
		l14.8,14c0.2,0.2,0.3,0.4,0.3,0.7C25.2,16.3,25.1,16.5,24.9,16.7L24.9,16.7z"/>
</g>
<g id="tel" class="st0">
	<path class="st1" d="M25,30.8c-6.3,0-12.4-2.5-16.9-7S1,13,1.1,6.7c0-0.2,0.3-1.7,1-2.4L4,2.4c1.1-1.1,3.1-1.6,4.5-1.1L9,1.5
		c1.4,0.5,2.8,1.9,3.2,3.3l1,3.5c0.4,1.5-0.1,3.4-1.2,4.5l-0.6,0.6c1.2,3.4,3.9,6,7.2,7.2l0.6-0.6c1.1-1.1,3-1.6,4.5-1.2l3.5,1
		c1.4,0.4,2.9,1.8,3.3,3.2l0.1,0.4c0.5,1.5,0,3.4-1.1,4.5l-1.9,1.9C26.9,30.5,25.4,30.8,25,30.8C25.2,30.8,25.1,30.8,25,30.8z
		 M4.3,6.9c0,5.5,2.2,10.9,6.1,14.7c3.9,3.9,9.2,6.1,14.7,6.1l0,0c0.2,0,0.4-0.1,0.5-0.2l1.8-1.8c0.3-0.3,0.4-1,0.3-1.4L27.6,24
		c-0.1-0.4-0.8-1-1.2-1.1l-3.5-1c-0.4-0.1-1.2,0.1-1.5,0.4l-1.9,1.9L18.6,24c-5.1-1.4-9.1-5.4-10.5-10.5l-0.2-0.9l1.9-1.9
		c0.3-0.3,0.5-1.1,0.4-1.5l-1-3.5C9,5.2,8.5,4.6,8,4.4L7.6,4.3c-0.4-0.1-1.1,0-1.4,0.3L4.4,6.5l0,0C4.4,6.5,4.3,6.7,4.3,6.9z"/>
</g>
<g id="user" class="st0">
	<path class="st1" d="M16,4.2c2.2,0,4.1,1.7,4.1,3.8s-1.8,3.8-4.1,3.8s-4.1-1.7-4.1-3.8S13.8,4.2,16,4.2 M16,1.2
		c-3.9,0-7.1,3.1-7.1,6.9S12.1,15,16,15s7.1-3.1,7.1-6.9C23.1,4.2,19.9,1.2,16,1.2L16,1.2z"/>
	<path class="st1" d="M15.9,18.6c8.1,0,9.1,7.2,9.2,8.6c-0.4,0.2-1.8,0.7-5.5,0.7c-0.7,0-1.4,0-2.1,0c-0.6,0-1.2,0-1.6,0h-0.7h-0.8
		c-5.1,0-6.9-0.5-7.5-0.8C7.1,24.4,8.9,18.6,15.9,18.6 M15.9,15.5c-9,0-12,7.7-12,11.8c0,3.2,6.4,3.4,10.5,3.4c0.5,0,1,0,1.5,0
		c1,0,2.3,0,3.7,0c4,0,8.5-0.4,8.5-3.5C28.2,23.2,25.1,15.5,15.9,15.5L15.9,15.5z"/>
</g>
<g id="order" class="st0">
	<path class="st1" d="M8.7,14.4h14.6c0.6,0,1.1-0.2,1.5-0.6c0.4-0.4,0.6-0.9,0.6-1.4s-0.2-1-0.6-1.5l-7.3-7.3C17,3.2,16.5,3,16,3
		s-1,0.2-1.5,0.6l-7.3,7.3c-0.4,0.4-0.6,0.9-0.6,1.5c0,0.5,0.2,1,0.6,1.4C7.6,14.2,8.1,14.4,8.7,14.4z M9.2,12.1L16,5.4l6.8,6.8H9.2
		V12.1z"/>
	<path class="st1" d="M23.3,17.6H8.7c-0.6,0-1.1,0.2-1.5,0.6s-0.6,0.9-0.6,1.4s0.2,1,0.6,1.5l7.3,7.3c0.5,0.4,1,0.6,1.5,0.6
		s1-0.2,1.5-0.6l7.3-7.3c0.4-0.4,0.6-0.9,0.6-1.5c0-0.5-0.2-1-0.6-1.4S23.9,17.6,23.3,17.6z M22.8,19.9L16,26.6l-6.8-6.8h13.6V19.9z
		"/>
</g>
<path id="filter" class="st0" d="M28.8,3.2c-0.4-0.4-0.8-0.6-1.4-0.6H4.6c-0.6,0-1,0.2-1.4,0.6S2.6,4.1,2.6,4.6s0.2,1,0.6,1.4
	l9.2,9.2v9.4c0,0.6,0.2,1.1,0.7,1.5l3.3,2.8c0.4,0.3,0.8,0.5,1.2,0.5c0.1,0,0.1,0,0.2,0c0.5,0,0.9-0.2,1.3-0.6s0.6-0.8,0.6-1.4V15.2
	L28.8,6c0.4-0.4,0.5-0.9,0.5-1.4C29.4,4.1,29.2,3.6,28.8,3.2z M5.4,4.9h21.1l-9.3,9.3v12.4l-2.6-2.3V14.2L5.4,4.9z"/>
<path id="search" class="st0" d="M29.6,27.5l-6.8-6.8c-0.1-0.1-0.2-0.2-0.4-0.3c0.7-0.8,1.2-1.8,1.6-2.8c0.5-1.3,0.8-2.7,0.8-4.2
	c0-2.1-0.5-4-1.5-5.7s-2.4-3.1-4.1-4.1s-3.7-1.5-5.7-1.5c-2.1,0-4,0.5-5.7,1.5C6,4.6,4.6,6,3.6,7.8c-1,1.7-1.5,3.7-1.5,5.7
	c0,2.1,0.5,4,1.5,5.7s2.4,3.1,4.1,4.1s3.7,1.5,5.7,1.5c1.5,0,2.9-0.3,4.2-0.8c1-0.4,2-0.9,2.8-1.6c0.1,0.1,0.1,0.2,0.3,0.3l6.7,6.7
	c0.2,0.3,0.5,0.4,0.8,0.4s0.6-0.1,0.8-0.3l0.6-0.5c0.2-0.2,0.3-0.5,0.3-0.8C29.9,28,29.8,27.7,29.6,27.5z M13.5,4.8
	c1.6,0,3.1,0.4,4.4,1.2s2.4,1.8,3.2,3.2c0.8,1.3,1.2,2.8,1.2,4.4s-0.4,3.1-1.2,4.4c-0.8,1.3-1.8,2.4-3.2,3.2
	c-1.3,0.8-2.8,1.2-4.4,1.2s-3.1-0.4-4.4-1.2c-1.3-0.8-2.4-1.8-3.2-3.2c-0.8-1.3-1.2-2.8-1.2-4.4s0.4-3.1,1.2-4.4S7.7,6.8,9.1,6
	C10.4,5.2,11.9,4.8,13.5,4.8z"/>
<g id="list" class="st0">
	<path class="st1" d="M5.6,14H2.9c-0.2,0-0.4,0.1-0.5,0.2c-0.1,0.1-0.2,0.3-0.2,0.5v2.7c0,0.2,0.1,0.4,0.2,0.5C2.5,18,2.7,18,2.9,18
		h2.7c0.2,0,0.4,0,0.5-0.2c0.1-0.1,0.2-0.3,0.2-0.5v-2.7c0-0.2-0.1-0.3-0.2-0.5C6,14,5.8,14,5.6,14z"/>
	<path class="st1" d="M5.6,4.9H2.9C2.7,4.9,2.5,5,2.4,5.1C2.3,5.2,2.2,5.4,2.2,5.6v2.7c0,0.2,0.1,0.4,0.2,0.5C2.5,8.9,2.7,9,2.9,9
		h2.7C5.8,9,6,8.9,6.1,8.8c0.1-0.1,0.2-0.3,0.2-0.5V5.6c0-0.2-0.1-0.3-0.2-0.5S5.8,4.9,5.6,4.9z"/>
	<path class="st1" d="M5.6,23H2.9c-0.2,0-0.4,0.1-0.5,0.2s-0.2,0.3-0.2,0.5v2.7c0,0.2,0.1,0.4,0.2,0.5c0.1,0.1,0.3,0.2,0.5,0.2h2.7
		c0.2,0,0.4-0.1,0.5-0.2s0.2-0.3,0.2-0.5v-2.7c0-0.2-0.1-0.3-0.2-0.5C6,23.1,5.8,23,5.6,23z"/>
	<path class="st1" d="M29.1,23H9.9c-0.2,0-0.4,0.1-0.5,0.2s-0.2,0.3-0.2,0.5v2.7c0,0.2,0.1,0.4,0.2,0.5c0.1,0.1,0.3,0.2,0.5,0.2
		h19.2c0.2,0,0.4-0.1,0.5-0.2s0.2-0.3,0.2-0.5v-2.7c0-0.2-0.1-0.3-0.2-0.5C29.5,23.1,29.3,23,29.1,23z"/>
	<path class="st1" d="M29.6,5.1c-0.1-0.1-0.3-0.2-0.5-0.2H9.9C9.7,4.9,9.5,5,9.4,5.1C9.3,5.2,9.2,5.4,9.2,5.6v2.7
		c0,0.2,0.1,0.4,0.2,0.5C9.5,8.9,9.7,9,9.9,9h19.2c0.2,0,0.4-0.1,0.5-0.2c0.1-0.1,0.2-0.3,0.2-0.5V5.6C29.8,5.4,29.7,5.2,29.6,5.1z"
		/>
	<path class="st1" d="M29.1,14H9.9c-0.2,0-0.4,0.1-0.5,0.2c-0.1,0.1-0.2,0.3-0.2,0.5v2.7c0,0.2,0.1,0.4,0.2,0.5
		C9.5,18,9.7,18,9.9,18h19.2c0.2,0,0.4-0.1,0.5-0.2s0.2-0.3,0.2-0.5v-2.7c0-0.2-0.1-0.3-0.2-0.5C29.5,14,29.3,14,29.1,14z"/>
</g>
<path id="mail" class="st0" d="M28.5,13.4c-3.4,2.3-6,4.1-7.8,5.4c-0.6,0.4-1.1,0.8-1.5,1s-0.9,0.5-1.5,0.8C17.1,20.9,16.5,21,16,21
	l0,0l0,0c-0.5,0-1.1-0.1-1.7-0.4c-0.6-0.3-1.1-0.5-1.5-0.8c-0.4-0.2-0.9-0.6-1.5-1c-1.4-1-4-2.9-7.8-5.4C2.9,13,2.4,12.5,1.9,12
	v12.5c0,0.7,0.2,1.3,0.7,1.8S3.7,27,4.4,27h23.1c0.7,0,1.3-0.2,1.8-0.7s0.7-1.1,0.7-1.8V12.1C29.6,12.6,29.1,13,28.5,13.4L28.5,13.4
	z M29.3,5.6c-0.5-0.5-1.1-0.7-1.8-0.7h-23C3.6,4.9,3,5.2,2.6,5.7s-0.7,1.2-0.7,2c0,0.7,0.3,1.4,0.9,2.2s1.2,1.4,1.8,1.8
	C5,12,6.1,12.7,7.9,14s3.2,2.2,4.1,2.9c0.1,0.1,0.3,0.2,0.7,0.5c0.3,0.2,0.6,0.4,0.8,0.6s0.5,0.3,0.8,0.5s0.6,0.3,0.9,0.4
	C15.5,19,15.7,19,16,19l0,0l0,0c0.2,0,0.5,0,0.8-0.1s0.6-0.2,0.9-0.4c0.3-0.2,0.6-0.4,0.8-0.5c0.2-0.2,0.5-0.4,0.8-0.6
	s0.6-0.4,0.7-0.5c1-0.7,3.4-2.4,7.3-5.1c0.8-0.5,1.4-1.2,1.9-1.9C29.7,9.1,30,8.3,30,7.5C30.1,6.7,29.8,6.1,29.3,5.6z"/>
<path id="check" d="M16,30.3C8.1,30.3,1.7,23.9,1.7,16S8.1,1.8,16,1.8s14.3,6.4,14.3,14.3C30.3,23.9,23.9,30.3,16,30.3z M23.8,11.2
	c-0.6-0.6-1.5-0.6-2,0l-8,7.5l-3.6-4c-0.6-0.6-1.5-0.6-2,0c-0.6,0.6-0.6,1.7,0,2.3l4.3,4.8c0.1,0.1,0.1,0.3,0.2,0.4
	c0.3,0.3,0.7,0.5,1.1,0.5c0.4,0,0.8-0.1,1-0.5c0.1-0.1,0.1-0.2,0.2-0.3l8.8-8.4C24.4,12.9,24.4,11.9,23.8,11.2z"/>
<g id="Layer_2_1_">
</g>
</svg>
